<svg width="31" height="32" viewBox="0 0 31 32" fill="none" xmlns="http://www.w3.org/2000/svg">
<rect width="31" height="32" rx="15.5" fill="white"/>
<path d="M19.3334 23.125V21.2083C19.3334 20.1917 18.9295 19.2166 18.2107 18.4978C17.4918 17.7789 16.5167 17.375 15.5001 17.375H9.75008C8.73342 17.375 7.75839 17.7789 7.03951 18.4978C6.32062 19.2166 5.91675 20.1917 5.91675 21.2083V23.125M25.0834 23.125V21.2083C25.0828 20.359 24.8001 19.5339 24.2797 18.8626C23.7594 18.1914 23.0308 17.7119 22.2084 17.4996M19.3334 5.99958C20.158 6.21071 20.8888 6.69026 21.4107 7.36263C21.9326 8.03501 22.2159 8.86196 22.2159 9.71313C22.2159 10.5643 21.9326 11.3912 21.4107 12.0636C20.8888 12.736 20.158 13.2155 19.3334 13.4267M16.4584 9.70833C16.4584 11.8254 14.7422 13.5417 12.6251 13.5417C10.508 13.5417 8.79175 11.8254 8.79175 9.70833C8.79175 7.59124 10.508 5.875 12.6251 5.875C14.7422 5.875 16.4584 7.59124 16.4584 9.70833Z" stroke="black" stroke-width="2" stroke-linecap="round" stroke-linejoin="round"/>
</svg>
